<svg width="24" height="24" viewBox="0 0 24 24" fill="none" xmlns="http://www.w3.org/2000/svg">
<path d="M10.268 20C10.4435 20.304 10.696 20.5565 11 20.732C11.3041 20.9075 11.6489 20.9999 12 20.9999C12.3511 20.9999 12.6959 20.9075 13 20.732C13.304 20.5565 13.5565 20.304 13.732 20M3.262 16.326C3.13137 16.4692 3.04516 16.6472 3.01386 16.8385C2.98256 17.0298 3.00752 17.226 3.08571 17.4034C3.1639 17.5807 3.29194 17.7316 3.45426 17.8375C3.61658 17.9434 3.80618 17.9999 4 18H20C20.1938 18.0001 20.3834 17.9438 20.5459 17.8381C20.7083 17.7324 20.8365 17.5817 20.9149 17.4045C20.9933 17.2273 21.0185 17.0311 20.9874 16.8398C20.9564 16.6485 20.8704 16.4703 20.74 16.327C19.41 14.956 18 13.499 18 9C18 7.4087 17.3679 5.88258 16.2426 4.75736C15.1174 3.63214 13.5913 3 12 3C10.4087 3 8.88258 3.63214 7.75736 4.75736C6.63214 5.88258 6 7.4087 6 9C6 13.499 4.589 14.956 3.262 16.326Z" stroke="#F36012" stroke-width="1.5" stroke-linecap="round" stroke-linejoin="round"/>
</svg>
