<svg width="24" height="24" viewBox="0 0 24 24" fill="none" xmlns="http://www.w3.org/2000/svg">
<path d="M15.1507 3V6.6M19.6507 11.775V6.6C19.6507 6.12261 19.461 5.66477 19.1235 5.32721C18.7859 4.98964 18.3281 4.8 17.8507 4.8H5.25068C4.77329 4.8 4.31546 4.98964 3.97789 5.32721C3.64033 5.66477 3.45068 6.12261 3.45068 6.6V19.2C3.45068 19.6774 3.64033 20.1352 3.97789 20.4728C4.31546 20.8104 4.77329 21 5.25068 21H11.7757M20.5507 21L18.8632 19.3125M3.45068 10.2H19.6507M7.95068 3V6.6M19.6507 17.4C19.6507 18.8912 18.4419 20.1 16.9507 20.1C15.4595 20.1 14.2507 18.8912 14.2507 17.4C14.2507 15.9088 15.4595 14.7 16.9507 14.7C18.4419 14.7 19.6507 15.9088 19.6507 17.4Z" stroke="#202937" stroke-width="1.5" stroke-linecap="round" stroke-linejoin="round"/>
</svg>
