<svg width="60" height="60" viewBox="0 0 60 60" fill="none" xmlns="http://www.w3.org/2000/svg">
<rect width="60" height="60" rx="30" fill="#F3F4F6"/>
<path d="M27.9982 31.0039C28.4277 31.578 28.9756 32.0531 29.6048 32.3968C30.234 32.7406 30.9298 32.945 31.6449 32.9962C32.36 33.0474 33.0778 32.9442 33.7496 32.6937C34.4214 32.4431 35.0314 32.0509 35.5382 31.5439L38.5382 28.5439C39.449 27.6009 39.953 26.3378 39.9416 25.0269C39.9302 23.7159 39.4044 22.4618 38.4773 21.5348C37.5503 20.6077 36.2962 20.0819 34.9853 20.0705C33.6743 20.0591 32.4113 20.5631 31.4682 21.4739L29.7482 23.1839M31.9982 29.0039C31.5688 28.4297 31.0209 27.9547 30.3917 27.6109C29.7625 27.2672 29.0667 27.0628 28.3516 27.0115C27.6365 26.9603 26.9187 27.0635 26.2469 27.3141C25.5751 27.5647 24.9651 27.9568 24.4582 28.4639L21.4582 31.4639C20.5475 32.4069 20.0435 33.6699 20.0549 34.9809C20.0663 36.2919 20.5921 37.5459 21.5192 38.473C22.4462 39.4 23.7003 39.9259 25.0112 39.9372C26.3222 39.9486 27.5852 39.4447 28.5282 38.5339L30.2382 36.8239" stroke="#6C7180" stroke-width="1.5" stroke-linecap="round" stroke-linejoin="round"/>
</svg>
