<svg width="180" height="60" viewBox="0 0 180 60" fill="none" xmlns="http://www.w3.org/2000/svg">
<path d="M163.408 41.9797H64.1692C63.4078 41.9797 62.7925 42.5962 62.7925 43.3538V49.2421C62.7925 51.7728 64.8468 53.8256 67.3847 53.8256H166.623C167.385 53.8256 168 53.209 168 52.4515V46.5632C168 44.0325 165.946 41.9797 163.408 41.9797Z" fill="#F36012"/>
<path d="M60.0055 19.1674H59.1101C58.1715 19.1674 56.5721 18.4624 56.3518 17.5519V7.37409C56.3518 6.61416 55.7341 6 54.9751 6H49.0756C46.54 6 44.4833 8.05038 44.4833 10.5835V38.5815H34.3124C33.788 38.0725 33.4169 37.2671 33.4169 36.6315C33.4169 35.8285 33.9509 35.1307 34.6979 34.8344C36.7402 34.0219 38.2151 32.8724 39.1153 31.3908C40.1952 29.6129 40.7171 27.5003 40.6812 25.0581V16.6701C40.607 14.5958 40.1233 12.7629 39.2279 11.1714C38.3348 9.57981 36.8719 8.32042 34.8415 7.39321C32.8064 6.46361 30.0194 6 26.4807 6C22.9419 6 20.1095 6.49228 17.9857 7.47207C15.862 8.45425 14.3344 9.75904 13.4031 11.3888C12.4693 13.0186 12.0048 14.8539 12.0048 16.89V25.168C12.0407 27.4645 12.6656 29.5101 13.8771 31.3072C14.8636 32.7697 16.36 33.9048 18.3688 34.7173C19.2188 35.0614 19.8293 35.8524 19.8293 36.7677C19.8293 37.3245 19.6067 38.0175 19.2475 38.5815H13.3767C13.2857 38.5815 12.7973 38.5911 12.4022 38.9854C12.1532 39.2339 12 39.578 12 39.9556V45.8439C12 45.8821 12.0048 45.918 12.0048 45.9538V46.1617C12.0048 46.2979 12.0287 46.4341 12.0623 46.568C12.4118 48.7546 14.3009 50.4274 16.5922 50.4274H44.4809V52.6259C44.4809 53.3858 45.0987 54 45.8577 54H51.7572C54.2927 54 56.3494 51.9496 56.3494 49.4165V37.107C56.5961 35.7353 58.5977 34.6671 60.0055 34.6671C61.0087 34.6671 61.8228 33.8546 61.8228 32.8533V20.9812C61.8228 19.9799 61.0087 19.1674 60.0055 19.1674ZM27.9627 24.1213C27.8406 23.7843 27.2612 23.7867 27.1415 24.1213C25.8845 27.6581 23.4519 28.614 21.4862 27.9401C18.7543 27.0033 17.4087 23.5621 18.4813 20.2571C18.7567 19.4087 19.1733 18.601 19.6665 18.0108C20.1597 17.4181 20.6458 17.2221 21.0361 17.7144C21.2491 17.9845 20.9259 18.5437 20.8349 18.8328C20.0735 21.2632 20.6554 23.7509 22.5947 24.4391C23.8086 24.8693 25.2452 23.5836 26.3753 21.6861C26.7991 20.9764 27.8718 20.9095 28.3339 21.5929C29.3418 23.0794 30.2229 23.9659 30.9748 23.8465C32.6388 23.5764 32.713 21.6001 32.4233 19.5736C32.3419 18.9953 32.1527 18.4648 31.887 18.0108C31.6212 17.5567 32.2725 17.2293 33.1296 18.0108C33.9868 18.7922 34.6117 19.9345 34.808 21.2679C35.215 24.0233 33.6444 26.554 31.298 26.9196C30.0984 27.106 28.8079 26.468 27.9603 24.1213H27.9627Z" fill="#F36012"/>
<path d="M150.074 29.7586C146.732 28.6211 146.837 26.4632 148.484 26.5158C150.131 26.5707 151.896 26.3174 153.665 25.72C156.931 24.6183 160.025 23.2705 162.026 21.5547C162.855 20.8426 163.326 19.8054 163.334 18.7133C163.353 16.001 163.374 10.464 163.374 10.464C163.374 8.49726 161.777 6.90571 159.809 6.90571H120.217C118.247 6.90571 116.652 8.49965 116.652 10.464C116.652 12.8083 118.086 14.9232 120.279 15.7596C122.473 16.596 124.936 17.0549 127.57 17.3894C129.423 17.6236 131.202 17.5209 132.806 17.1433C134.41 16.7633 134.944 18.8591 131.894 20.6371C128.844 22.415 124.85 23.2466 120.579 22.7257C120.428 22.7066 120.277 22.6874 120.126 22.6659C118.402 22.415 116.769 23.672 116.657 25.4069C116.652 25.4834 116.65 25.5623 116.65 25.6388V25.6913C116.65 34.2346 121.608 38.6699 133.675 38.6699H133.68C143.854 38.6723 153.206 38.2876 160.566 37.0282C162.215 36.7462 163.377 35.2932 163.377 33.6228V29.9474C163.377 29.4456 162.874 29.0967 162.405 29.2759C162.134 29.3787 161.861 29.4767 161.583 29.5675C157.499 30.9248 153.421 30.9009 150.079 29.7634L150.074 29.7586Z" fill="#F36012"/>
<path d="M100.852 29.7586C97.5097 28.6211 97.615 26.4632 99.2623 26.5158C100.91 26.5707 102.674 26.3174 104.444 25.72C107.709 24.6183 110.803 23.2705 112.804 21.5547C113.633 20.8426 114.105 19.8054 114.112 18.7133C114.131 16.001 114.152 10.464 114.152 10.464C114.152 8.49726 112.555 6.90571 110.587 6.90571H70.9953C69.0248 6.90571 67.4302 8.49965 67.4302 10.464C67.4302 12.8083 68.8644 14.9232 71.0576 15.7596C73.2507 16.596 75.7145 17.0549 78.3482 17.3894C80.2014 17.6236 81.9803 17.5209 83.5845 17.1433C85.1887 16.7633 85.7226 18.8591 82.6723 20.6371C79.6219 22.415 75.6283 23.2466 71.3569 22.7257C71.206 22.7066 71.0552 22.6874 70.9043 22.6659C69.1804 22.415 67.5475 23.672 67.435 25.4069C67.4302 25.4834 67.4278 25.5623 67.4278 25.6388V25.6913C67.4278 34.2346 72.3864 38.6699 84.4536 38.6699H84.4584C94.6318 38.6723 103.984 38.2876 111.344 37.0282C112.994 36.7462 114.155 35.2932 114.155 33.6228V29.9474C114.155 29.4456 113.652 29.0967 113.183 29.2759C112.912 29.3787 112.639 29.4767 112.361 29.5675C108.277 30.9248 104.199 30.9009 100.857 29.7634L100.852 29.7586Z" fill="#F36012"/>
</svg>
